<?xml version="1.0" encoding="UTF-8" standalone="no"?>
<svg
   xmlns:dc="http://purl.org/dc/elements/1.1/"
   xmlns:cc="http://creativecommons.org/ns#"
   xmlns:rdf="http://www.w3.org/1999/02/22-rdf-syntax-ns#"
   xmlns:svg="http://www.w3.org/2000/svg"
   xmlns="http://www.w3.org/2000/svg"
   id="svg853"
   version="1.1"
   viewBox="0 0 210 297"
   height="297mm"
   width="210mm">
  <defs
     id="defs847" />
  <metadata
     id="metadata850">
    <rdf:RDF>
      <cc:Work
         rdf:about="">
        <dc:format>image/svg+xml</dc:format>
        <dc:type
           rdf:resource="http://purl.org/dc/dcmitype/StillImage" />
        <dc:title></dc:title>
      </cc:Work>
    </rdf:RDF>
  </metadata>
  <g
     id="layer1">
    <g
       style="stroke-width:0.0853606"
       transform="matrix(3.1065115,0,0,3.0927089,97.350778,-241.01248)"
       id="g1418">
      <circle
         style="stroke-width:0.0853606"
         id="circle6"
         r="6.8000002"
         cy="130.14282"
         cx="12.660431" />
      <path
         class="st0"
         d="m 12.660431,107.64283 c 11.8,0 21.4,9.6 21.4,21.4 0,11.7 -9.4,21.3 -21.1,21.4 h -0.3 c -23.7,0.1 -42.9,-19.1 -42.9,-42.8 0,-23.6 19,-42.7 42.6,-42.9 -11.7000002,0.2 -21.1000001,9.7 -21.1000001,21.4 0,11.899995 9.5999999,21.5 21.4000001,21.5 z m 6.8,22.5 c 0,-3.7 -3,-6.8 -6.8,-6.8 -3.8000001,0 -6.8000001,3 -6.8000001,6.8 0,3.7 3,6.8 6.8000001,6.8 3.8,0 6.8,-3.1 6.8,-6.8 z"
         id="path845"
         style="fill:#f9f9f9;stroke-width:0.0853606" />
    </g>
  </g>
</svg>
